<mxfile host="65bd71144e">
    <diagram id="wUI_ElhNAdiBpmrQGnyl" name="Page-1">
        <mxGraphModel dx="3968" dy="595" grid="1" gridSize="10" guides="1" tooltips="1" connect="1" arrows="1" fold="1" page="1" pageScale="1" pageWidth="850" pageHeight="1100" math="0" shadow="0">
            <root>
                <mxCell id="0"/>
                <mxCell id="1" parent="0"/>
                <mxCell id="2" value="" style="aspect=fixed;perimeter=ellipsePerimeter;html=1;align=center;shadow=0;dashed=0;spacingTop=3;image;image=img/lib/active_directory/windows_server_2.svg;" vertex="1" parent="1">
                    <mxGeometry x="-3.3900000000000006" y="10.000000000000004" width="72" height="90" as="geometry"/>
                </mxCell>
                <mxCell id="6" value="" style="sketch=0;aspect=fixed;html=1;points=[];align=center;image;fontSize=12;image=img/lib/mscae/VirtualMachineWindows.svg;" vertex="1" parent="1">
                    <mxGeometry x="-600" y="270" width="65.22" height="60" as="geometry"/>
                </mxCell>
                <mxCell id="9" value="" style="sketch=0;aspect=fixed;html=1;points=[];align=center;image;fontSize=12;image=img/lib/mscae/VirtualMachineWindows.svg;" vertex="1" parent="1">
                    <mxGeometry x="-480" y="340" width="65.22" height="60" as="geometry"/>
                </mxCell>
                <mxCell id="15" value="" style="sketch=0;aspect=fixed;html=1;points=[];align=center;image;fontSize=12;image=img/lib/mscae/VirtualMachineWindows.svg;" vertex="1" parent="1">
                    <mxGeometry x="-720" y="210" width="65.22" height="60" as="geometry"/>
                </mxCell>
                <mxCell id="25" value="" style="sketch=0;aspect=fixed;html=1;points=[];align=center;image;fontSize=12;image=img/lib/mscae/VirtualMachineWindows.svg;" vertex="1" parent="1">
                    <mxGeometry x="-320" y="400" width="65.22" height="60" as="geometry"/>
                </mxCell>
                <mxCell id="26" value="" style="sketch=0;aspect=fixed;html=1;points=[];align=center;image;fontSize=12;image=img/lib/mscae/VirtualMachineWindows.svg;" vertex="1" parent="1">
                    <mxGeometry x="-160" y="460" width="65.22" height="60" as="geometry"/>
                </mxCell>
                <mxCell id="27" value="" style="sketch=0;aspect=fixed;html=1;points=[];align=center;image;fontSize=12;image=img/lib/mscae/VirtualMachineWindows.svg;" vertex="1" parent="1">
                    <mxGeometry y="520" width="65.22" height="60" as="geometry"/>
                </mxCell>
                <mxCell id="28" value="" style="sketch=0;aspect=fixed;html=1;points=[];align=center;image;fontSize=12;image=img/lib/mscae/VirtualMachineWindows.svg;" vertex="1" parent="1">
                    <mxGeometry x="160" y="460" width="65.22" height="60" as="geometry"/>
                </mxCell>
                <mxCell id="29" value="" style="sketch=0;aspect=fixed;html=1;points=[];align=center;image;fontSize=12;image=img/lib/mscae/VirtualMachineWindows.svg;" vertex="1" parent="1">
                    <mxGeometry x="320" y="400" width="65.22" height="60" as="geometry"/>
                </mxCell>
                <mxCell id="30" value="" style="sketch=0;aspect=fixed;html=1;points=[];align=center;image;fontSize=12;image=img/lib/mscae/VirtualMachineWindows.svg;" vertex="1" parent="1">
                    <mxGeometry x="480" y="340" width="65.22" height="60" as="geometry"/>
                </mxCell>
                <mxCell id="31" value="" style="sketch=0;aspect=fixed;html=1;points=[];align=center;image;fontSize=12;image=img/lib/mscae/VirtualMachineWindows.svg;" vertex="1" parent="1">
                    <mxGeometry x="600" y="280" width="65.22" height="60" as="geometry"/>
                </mxCell>
                <mxCell id="32" value="" style="sketch=0;aspect=fixed;html=1;points=[];align=center;image;fontSize=12;image=img/lib/mscae/VirtualMachineWindows.svg;" vertex="1" parent="1">
                    <mxGeometry x="720" y="220" width="65.22" height="60" as="geometry"/>
                </mxCell>
                <mxCell id="33" value="" style="dashed=0;outlineConnect=0;html=1;align=center;labelPosition=center;verticalLabelPosition=bottom;verticalAlign=top;shape=mxgraph.weblogos.onedrive;fillColor=#094AB1;strokeColor=none" vertex="1" parent="1">
                    <mxGeometry x="350" y="430" width="51.2" height="30" as="geometry"/>
                </mxCell>
                <mxCell id="34" value="" style="dashed=0;outlineConnect=0;html=1;align=center;labelPosition=center;verticalLabelPosition=bottom;verticalAlign=top;shape=mxgraph.weblogos.onedrive;fillColor=#094AB1;strokeColor=none" vertex="1" parent="1">
                    <mxGeometry x="190" y="490" width="51.2" height="30" as="geometry"/>
                </mxCell>
                <mxCell id="35" value="" style="dashed=0;outlineConnect=0;html=1;align=center;labelPosition=center;verticalLabelPosition=bottom;verticalAlign=top;shape=mxgraph.weblogos.onedrive;fillColor=#094AB1;strokeColor=none" vertex="1" parent="1">
                    <mxGeometry x="30" y="550" width="51.2" height="30" as="geometry"/>
                </mxCell>
                <mxCell id="36" value="Note Line 1&#10;Note Line 2&#10;Note Line 3" style="strokeWidth=1;shadow=0;dashed=0;align=center;html=1;shape=mxgraph.mockup.text.stickyNote2;fontColor=#666666;mainText=;fontSize=17;whiteSpace=wrap;fillColor=#ffffcc;strokeColor=#F62E00;" vertex="1" parent="1">
                    <mxGeometry x="81.19999999999999" y="510" width="100" height="60" as="geometry"/>
                </mxCell>
                <mxCell id="37" value="" style="shape=wire;edgeStyle=orthogonalEdgeStyle;orthogonalLoop=1;jettySize=auto;html=1;sourcePerimeterSpacing=0;targetPerimeterSpacing=0;endArrow=none;curved=0;rounded=0;strokeColor=#009900;dashed=1;fillColor=#ffff00;dashPattern=12 12;fixDash=1;startSize=6;endSize=6;" edge="1" parent="1">
                    <mxGeometry width="100" relative="1" as="geometry">
                        <mxPoint x="390" y="330" as="sourcePoint"/>
                        <mxPoint x="490" y="330" as="targetPoint"/>
                    </mxGeometry>
                </mxCell>
                <mxCell id="38" value="" style="shape=wire;edgeStyle=orthogonalEdgeStyle;orthogonalLoop=1;jettySize=auto;html=1;sourcePerimeterSpacing=0;targetPerimeterSpacing=0;endArrow=none;curved=0;rounded=0;strokeColor=#009900;dashed=1;fillColor=#ffff00;dashPattern=12 12;fixDash=1;startSize=6;endSize=6;" edge="1" parent="1">
                    <mxGeometry width="100" relative="1" as="geometry">
                        <mxPoint x="390" y="330" as="sourcePoint"/>
                        <mxPoint x="490" y="330" as="targetPoint"/>
                    </mxGeometry>
                </mxCell>
                <mxCell id="39" value="" style="shape=wire;edgeStyle=orthogonalEdgeStyle;orthogonalLoop=1;jettySize=auto;html=1;sourcePerimeterSpacing=0;targetPerimeterSpacing=0;endArrow=none;curved=0;rounded=0;strokeColor=#009900;dashed=1;fillColor=#ffff00;dashPattern=12 12;fixDash=1;startSize=6;endSize=6;" edge="1" parent="1">
                    <mxGeometry width="100" relative="1" as="geometry">
                        <mxPoint x="390" y="330" as="sourcePoint"/>
                        <mxPoint x="490" y="330" as="targetPoint"/>
                    </mxGeometry>
                </mxCell>
                <mxCell id="40" value="" style="shape=wire;edgeStyle=orthogonalEdgeStyle;orthogonalLoop=1;jettySize=auto;html=1;sourcePerimeterSpacing=0;targetPerimeterSpacing=0;endArrow=none;curved=0;rounded=0;strokeColor=#009900;dashed=1;fillColor=#ffff00;dashPattern=12 12;fixDash=1;startSize=6;endSize=6;entryX=1;entryY=0.75;entryDx=0;entryDy=0;" edge="1" parent="1" target="2">
                    <mxGeometry width="100" relative="1" as="geometry">
                        <mxPoint x="190" y="459.16999999999996" as="sourcePoint"/>
                        <mxPoint x="290" y="459.16999999999996" as="targetPoint"/>
                        <Array as="points">
                            <mxPoint x="190" y="120"/>
                            <mxPoint x="290" y="120"/>
                            <mxPoint x="290" y="75"/>
                        </Array>
                    </mxGeometry>
                </mxCell>
                <mxCell id="41" value="" style="shape=wire;edgeStyle=orthogonalEdgeStyle;orthogonalLoop=1;jettySize=auto;html=1;sourcePerimeterSpacing=0;targetPerimeterSpacing=0;endArrow=none;curved=0;rounded=0;strokeColor=#009900;dashed=1;fillColor=#ffff00;dashPattern=12 12;fixDash=1;startSize=6;endSize=6;exitX=1;exitY=0.5;exitDx=0;exitDy=0;" edge="1" parent="1" source="2">
                    <mxGeometry width="100" relative="1" as="geometry">
                        <mxPoint x="220" y="400" as="sourcePoint"/>
                        <mxPoint x="320" y="400" as="targetPoint"/>
                    </mxGeometry>
                </mxCell>
                <mxCell id="42" value="" style="shape=wire;edgeStyle=orthogonalEdgeStyle;orthogonalLoop=1;jettySize=auto;html=1;sourcePerimeterSpacing=0;targetPerimeterSpacing=0;endArrow=none;curved=0;rounded=0;strokeColor=#009900;dashed=1;fillColor=#ffff00;dashPattern=12 12;fixDash=1;startSize=6;endSize=6;entryX=0;entryY=0.75;entryDx=0;entryDy=0;" edge="1" parent="1" target="2">
                    <mxGeometry width="100" relative="1" as="geometry">
                        <mxPoint x="-254.77999999999997" y="410" as="sourcePoint"/>
                        <mxPoint x="-70" y="-95" as="targetPoint"/>
                        <Array as="points">
                            <mxPoint x="-255" y="240"/>
                            <mxPoint x="-70" y="240"/>
                            <mxPoint x="-70" y="75"/>
                        </Array>
                    </mxGeometry>
                </mxCell>
            </root>
        </mxGraphModel>
    </diagram>
</mxfile>